<?xml version="1.0" encoding="UTF-8" standalone="no"?>
<!-- Created with Inkscape (http://www.inkscape.org/) -->

<svg
   xmlns:dc="http://purl.org/dc/elements/1.1/"
   xmlns:cc="http://creativecommons.org/ns#"
   xmlns:rdf="http://www.w3.org/1999/02/22-rdf-syntax-ns#"
   xmlns:svg="http://www.w3.org/2000/svg"
   xmlns="http://www.w3.org/2000/svg"
   xmlns:sodipodi="http://sodipodi.sourceforge.net/DTD/sodipodi-0.dtd"
   xmlns:inkscape="http://www.inkscape.org/namespaces/inkscape"
   width="3.5718751mm"
   height="4.709568mm"
   viewBox="0 0 3.571875 4.7095682"
   version="1.1"
   id="svg8"
   inkscape:version="0.92.4 (5da689c313, 2019-01-14)"
   sodipodi:docname="f-clief.svg">
  <defs
     id="defs2" />
  <sodipodi:namedview
     id="base"
     pagecolor="#ffffff"
     bordercolor="#666666"
     borderopacity="1.0"
     inkscape:pageopacity="0.0"
     inkscape:pageshadow="2"
     inkscape:zoom="2.8"
     inkscape:cx="53.897793"
     inkscape:cy="-20.997128"
     inkscape:document-units="mm"
     inkscape:current-layer="layer1"
     showgrid="false"
     fit-margin-top="0"
     fit-margin-left="0"
     fit-margin-right="0"
     fit-margin-bottom="0"
     inkscape:window-width="1920"
     inkscape:window-height="1021"
     inkscape:window-x="0"
     inkscape:window-y="30"
     inkscape:window-maximized="1" />
  <metadata
     id="metadata5">
    <rdf:RDF>
      <cc:Work
         rdf:about="">
        <dc:format>image/svg+xml</dc:format>
        <dc:type
           rdf:resource="http://purl.org/dc/dcmitype/StillImage" />
        <dc:title></dc:title>
      </cc:Work>
    </rdf:RDF>
  </metadata>
  <g
     inkscape:label="Layer 1"
     inkscape:groupmode="layer"
     id="layer1"
     transform="translate(-37.782496,-117.19296)">
    <g
       aria-label="ð„¢"
       style="font-style:normal;font-weight:normal;font-size:10.58333302px;line-height:1.25;font-family:sans-serif;letter-spacing:0px;word-spacing:0px;fill:#000000;fill-opacity:1;stroke:none;stroke-width:0.26458332"
       id="text871"
       transform="matrix(0.6343982,0,0,0.75295745,14.412817,29.617063)">
      <path
         d="m 42.012808,116.87016 q 0.1905,0 0.3175,0.13758 0.137583,0.13758 0.137583,0.3175 0,0.17992 -0.148167,0.3175 -0.148166,0.13758 -0.3175,0.13758 -0.4445,0 -0.4445,-0.47625 0,-0.1905 0.137584,-0.30691 0.137583,-0.127 0.3175,-0.127 z m -0.328084,2.18016 q 0.137584,-0.13758 0.328084,-0.13758 0.1905,0 0.3175,0.14817 0.137583,0.14816 0.137583,0.29633 0,0.20108 -0.137583,0.33867 -0.137584,0.13758 -0.3175,0.13758 -0.455084,0 -0.455084,-0.47625 0,-0.16933 0.127,-0.30692 z m -2.624666,-2.74108 q 0.85725,0 1.439333,0.59267 0.582083,0.58208 0.582083,1.397 0,0.40216 -0.116416,0.78316 -0.105833,0.381 -0.34925,0.73025 -0.243417,0.33867 -0.486833,0.62442 -0.243417,0.28575 -0.635,0.5715 -0.391584,0.28575 -0.656167,0.48683 -0.264583,0.1905 -0.719667,0.43392 -0.4445,0.24342 -0.645583,0.34925 -0.1905,0.0953 -0.582083,0.28575 l -0.05292,-0.16933 q 0.01058,-0.0106 0.28575,-0.1905 0.275167,-0.17992 0.4445,-0.28575 0.169333,-0.11642 0.497417,-0.381 0.338666,-0.26459 0.560916,-0.48684 0.22225,-0.23283 0.497417,-0.5715 0.28575,-0.34925 0.455083,-0.67733 0.169334,-0.32808 0.28575,-0.75142 0.127,-0.42333 0.127,-0.84666 0,-1.66159 -1.17475,-1.66159 -0.391583,0 -0.66675,0.10584 -0.275166,0.0953 -0.402166,0.24341 -0.116417,0.14817 -0.169334,0.26459 -0.05292,0.10583 -0.05292,0.1905 0,0.15875 0.211666,0.15875 0.08467,0 0.201084,-0.0318 0.116416,-0.0423 0.15875,-0.0423 0.28575,0 0.47625,0.17992 0.1905,0.17992 0.1905,0.4445 0,0.30692 -0.232834,0.508 -0.232833,0.20108 -0.550333,0.20108 -0.41275,0 -0.677333,-0.24341 -0.264584,-0.24342 -0.264584,-0.62442 0,-0.6985 0.592667,-1.143 0.60325,-0.4445 1.42875,-0.4445 z"
         style="stroke-width:0.26458332"
         id="path892"
         inkscape:connector-curvature="0" />
    </g>
  </g>
</svg>
