<?xml version="1.0" encoding="UTF-8" standalone="no"?>
<!-- Created with Inkscape (http://www.inkscape.org/) -->

<svg
   xmlns:dc="http://purl.org/dc/elements/1.1/"
   xmlns:cc="http://creativecommons.org/ns#"
   xmlns:rdf="http://www.w3.org/1999/02/22-rdf-syntax-ns#"
   xmlns:svg="http://www.w3.org/2000/svg"
   xmlns="http://www.w3.org/2000/svg"
   xmlns:sodipodi="http://sodipodi.sourceforge.net/DTD/sodipodi-0.dtd"
   xmlns:inkscape="http://www.inkscape.org/namespaces/inkscape"
   width="3.5212259mm"
   height="10.714869mm"
   viewBox="0 0 3.5212259 10.714869"
   version="1.1"
   id="svg8"
   inkscape:version="0.92.4 (5da689c313, 2019-01-14)"
   sodipodi:docname="g-clief.svg">
  <defs
     id="defs2" />
  <sodipodi:namedview
     id="base"
     pagecolor="#ffffff"
     bordercolor="#666666"
     borderopacity="1.0"
     inkscape:pageopacity="0.0"
     inkscape:pageshadow="2"
     inkscape:zoom="2.8"
     inkscape:cx="-13.99507"
     inkscape:cy="-9.3571412"
     inkscape:document-units="mm"
     inkscape:current-layer="layer1"
     showgrid="false"
     fit-margin-top="0"
     fit-margin-left="0"
     fit-margin-right="0"
     fit-margin-bottom="0"
     inkscape:window-width="1920"
     inkscape:window-height="1021"
     inkscape:window-x="0"
     inkscape:window-y="30"
     inkscape:window-maximized="1" />
  <metadata
     id="metadata5">
    <rdf:RDF>
      <cc:Work
         rdf:about="">
        <dc:format>image/svg+xml</dc:format>
        <dc:type
           rdf:resource="http://purl.org/dc/dcmitype/StillImage" />
        <dc:title />
      </cc:Work>
    </rdf:RDF>
  </metadata>
  <g
     inkscape:label="Layer 1"
     inkscape:groupmode="layer"
     id="layer1"
     transform="translate(-36.988747,-114.26741)">
    <g
       aria-label="ð„ž"
       transform="matrix(0.97691399,0,0,1.0532949,-0.53211149,-1.7979661)"
       style="font-style:normal;font-weight:normal;font-size:8.66419601px;line-height:1.25;font-family:sans-serif;letter-spacing:0px;word-spacing:0px;fill:#000000;fill-opacity:1;stroke:none;stroke-width:0.2166049"
       id="text817">
      <path
         d="m 41.128093,117.82678 q 0.259926,0.90974 0.259926,1.49024 0,0.4592 -0.320575,0.75379 -0.320575,0.29458 -0.779778,0.29458 -0.43321,0 -0.753785,-0.25993 -0.320575,-0.25126 -0.320575,-0.61515 0,-0.1213 0.04332,-0.25127 0.05198,-0.12129 0.121299,-0.23393 0.07798,-0.10397 0.190612,-0.17328 0.121299,-0.0606 0.251262,-0.0606 0.173284,0 0.303247,0.0866 0.138627,0.0953 0.20794,0.23393 0.06931,0.13863 0.06931,0.29459 0,0.53718 -0.606494,0.53718 0.155956,0.24259 0.502523,0.24259 0.103971,0 0.207941,-0.026 0.10397,-0.0173 0.225269,-0.0866 0.129963,-0.0606 0.225269,-0.16462 0.09531,-0.0953 0.155956,-0.27726 0.06065,-0.17328 0.06065,-0.40721 0,-0.18195 -0.242597,-1.3083 -0.190613,0.052 -0.476531,0.052 -0.840427,0 -1.446921,-0.62382 -0.597829,-0.62383 -0.597829,-1.49024 0,-0.30325 0.09531,-0.61516 0.10397,-0.31191 0.225269,-0.54585 0.129963,-0.24259 0.37256,-0.53718 0.251262,-0.30324 0.415882,-0.47653 0.173284,-0.18195 0.476531,-0.48519 -0.03466,-0.10397 -0.06065,-0.19928 -0.01733,-0.0953 -0.03466,-0.19061 -0.01733,-0.0953 -0.03466,-0.18195 -0.01733,-0.0953 -0.03466,-0.18195 -0.0087,-0.0953 -0.01733,-0.18195 -0.0087,-0.0953 -0.01733,-0.18194 0,-0.0867 0,-0.18195 0,-0.77978 0.285919,-1.29963 0.285918,-0.52852 0.571836,-0.52852 0.06931,0 0.147292,0.0693 0.08664,0.0693 0.173284,0.2166 0.09531,0.13863 0.164619,0.32924 0.07798,0.19061 0.121299,0.4592 0.05198,0.26859 0.05198,0.57184 0,1.37761 -0.979054,2.27868 l 0.225269,1.02238 q 0.01733,0 0.03466,0 0.01733,-0.009 0.03466,-0.009 0.01733,0 0.02599,0 0.01733,-0.009 0.03466,-0.009 0.01733,0 0.03466,0 0.01733,0 0.02599,0 0.01733,-0.009 0.02599,-0.009 0.01733,0 0.03466,0 0.528516,0 0.892412,0.43321 0.363896,0.42454 0.363896,1.0397 -0.0087,1.02237 -0.935733,1.38627 z m -0.06931,-6.44616 q 0,-0.47653 -0.277255,-0.47653 -0.155955,0 -0.303246,0.12996 -0.138628,0.12996 -0.233934,0.34657 -0.09531,0.20794 -0.155955,0.47653 -0.05198,0.25993 -0.05198,0.52852 0,0.36389 0.112634,0.63248 0.07798,-0.0433 0.155956,-0.11263 0.08664,-0.078 0.164619,-0.16462 0.07798,-0.0953 0.155956,-0.19928 0.07798,-0.11263 0.138627,-0.22527 0.06065,-0.1213 0.112635,-0.2426 0.06065,-0.12129 0.09531,-0.23393 0.04332,-0.1213 0.06065,-0.23393 0.02599,-0.1213 0.02599,-0.22527 z m 0.623822,5.35447 q 0,-0.2426 -0.07798,-0.43321 -0.06931,-0.19927 -0.207941,-0.32924 -0.129963,-0.13862 -0.311911,-0.20794 -0.181948,-0.078 -0.398553,-0.078 l 0.389889,1.95811 q 0.606494,-0.25126 0.606494,-0.90974 z m -0.788442,0.96173 -0.398553,-1.99277 q -0.155956,0.0347 -0.303247,0.15596 -0.138627,0.11263 -0.233933,0.28592 -0.08664,0.16462 -0.08664,0.32924 0,0.0953 0.02599,0.19061 0.03466,0.0953 0.07798,0.16462 0.04332,0.0693 0.09531,0.13862 0.05199,0.0693 0.103971,0.11264 0.06065,0.0433 0.10397,0.078 0.04332,0.0346 0.06931,0.052 0.03466,0.0173 0.03466,0.0173 l -0.06931,0.0433 q -0.285919,-0.078 -0.545845,-0.34657 -0.251261,-0.26859 -0.251261,-0.6758 0,-0.27726 0.129963,-0.53718 0.129963,-0.25993 0.311911,-0.42455 0.181948,-0.17328 0.381224,-0.2426 l -0.155955,-0.92707 q -1.360279,1.13501 -1.360279,2.19205 0,0.63248 0.476531,1.05703 0.476531,0.42454 1.083024,0.42454 0.147292,0 0.511188,-0.0953 z"
         style="stroke-width:0.2166049"
         id="path840"
         inkscape:connector-curvature="0" />
    </g>
  </g>
</svg>
