<?xml version="1.0" encoding="UTF-8" standalone="no"?>
<!-- Created with Inkscape (http://www.inkscape.org/) -->

<svg
   xmlns:dc="http://purl.org/dc/elements/1.1/"
   xmlns:cc="http://creativecommons.org/ns#"
   xmlns:rdf="http://www.w3.org/1999/02/22-rdf-syntax-ns#"
   xmlns:svg="http://www.w3.org/2000/svg"
   xmlns="http://www.w3.org/2000/svg"
   xmlns:sodipodi="http://sodipodi.sourceforge.net/DTD/sodipodi-0.dtd"
   xmlns:inkscape="http://www.inkscape.org/namespaces/inkscape"
   width="48"
   height="48"
   viewBox="0 0 48 48"
   version="1.1"
   id="svg8"
   inkscape:version="0.92.4 (5da689c313, 2019-01-14)"
   sodipodi:docname="metronome.svg">
  <defs
     id="defs2" />
  <sodipodi:namedview
     id="base"
     pagecolor="#ffffff"
     bordercolor="#666666"
     borderopacity="1.0"
     inkscape:pageopacity="0.0"
     inkscape:pageshadow="2"
     inkscape:zoom="5.6568542"
     inkscape:cx="18.537033"
     inkscape:cy="12.207251"
     inkscape:document-units="px"
     inkscape:current-layer="layer1"
     showgrid="false"
     units="px"
     showguides="true"
     inkscape:guide-bbox="true"
     inkscape:window-width="1920"
     inkscape:window-height="1021"
     inkscape:window-x="0"
     inkscape:window-y="30"
     inkscape:window-maximized="1" />
  <metadata
     id="metadata5">
    <rdf:RDF>
      <cc:Work
         rdf:about="">
        <dc:format>image/svg+xml</dc:format>
        <dc:type
           rdf:resource="http://purl.org/dc/dcmitype/StillImage" />
        <dc:title></dc:title>
      </cc:Work>
    </rdf:RDF>
  </metadata>
  <g
     inkscape:label="Layer 1"
     inkscape:groupmode="layer"
     id="layer1"
     transform="translate(0,-284.3)">
    <g
       id="g839"
       transform="translate(0,0.3538)">
      <path
         sodipodi:nodetypes="sssssssss"
         inkscape:connector-curvature="0"
         id="rect815"
         d="m 16.110545,287.72015 h 15.77891 c 1.169242,0 1.982236,0.94837 2.110544,2.11055 l 4,36.231 c 0.128308,1.16218 -0.941302,2.11055 -2.110544,2.11055 h -23.77891 c -1.169241,0 -2.2388517,-0.94837 -2.110544,-2.11055 l 4,-36.231 c 0.128308,-1.16218 0.941303,-2.11055 2.110544,-2.11055 z"
         style="opacity:1;fill:#656565;fill-opacity:1;stroke:#000000;stroke-width:1;stroke-miterlimit:4;stroke-dasharray:none;stroke-opacity:1" />
      <rect
         y="289.29498"
         x="22.248737"
         height="24.99202"
         width="3.5025239"
         id="rect828"
         style="opacity:1;fill:#ffffff;fill-opacity:1;stroke:#ececec;stroke-width:0.98963273;stroke-miterlimit:4;stroke-dasharray:none;stroke-opacity:1" />
      <path
         sodipodi:nodetypes="cc"
         inkscape:connector-curvature="0"
         id="path830"
         d="M 24.100701,320.54153 43.742098,292.87485"
         style="fill:none;stroke:#000000;stroke-width:1.60000002;stroke-linecap:round;stroke-linejoin:miter;stroke-miterlimit:4;stroke-dasharray:none;stroke-opacity:1" />
      <path
         style="opacity:1;fill:#0c0c0c;fill-opacity:1;stroke:#000000;stroke-width:1;stroke-miterlimit:4;stroke-dasharray:none;stroke-opacity:1"
         d="m 14.279463,311.69744 h 19.439305 c 1.559325,0 1.537385,0.50756 1.697039,1.98418 l 1.240879,11.4767 c 0.137558,1.27225 0.06895,1.72949 -1.313748,1.734 l -22.481258,0.0733 c -1.175323,0.004 -1.705792,-0.0653 -1.54962,-1.51244 l 1.270363,-11.77154 c 0.147842,-1.36995 -0.127641,-1.98418 1.69704,-1.98418 z"
         id="path826"
         inkscape:connector-curvature="0"
         sodipodi:nodetypes="sssssssss" />
      <path
         sodipodi:nodetypes="csssssscc"
         inkscape:connector-curvature="0"
         id="path832"
         d="m 42.949832,296.74904 c 0.204189,0.15692 0.120471,0.30545 -0.115761,0.77386 l -1.866541,3.7015 c -0.20352,0.40359 -0.365071,0.49385 -0.546947,0.35565 l -3.785511,-2.87632 c -0.154549,-0.11736 -0.250661,-0.22955 0.124086,-0.58148 l 3.084966,-2.89708 c 0.354799,-0.33319 0.487516,-0.4913 0.723255,-0.30701 0.842563,0.6507 1.46164,1.12325 2.382437,1.83088 z"
         style="opacity:1;fill:#0c0c0c;fill-opacity:1;stroke:#000000;stroke-width:1;stroke-miterlimit:4;stroke-dasharray:none;stroke-opacity:1" />
    </g>
  </g>
</svg>
