<?xml version="1.0" encoding="UTF-8" standalone="no"?>
<!-- Created with Inkscape (http://www.inkscape.org/) -->

<svg
   xmlns:dc="http://purl.org/dc/elements/1.1/"
   xmlns:cc="http://creativecommons.org/ns#"
   xmlns:rdf="http://www.w3.org/1999/02/22-rdf-syntax-ns#"
   xmlns:svg="http://www.w3.org/2000/svg"
   xmlns="http://www.w3.org/2000/svg"
   xmlns:sodipodi="http://sodipodi.sourceforge.net/DTD/sodipodi-0.dtd"
   xmlns:inkscape="http://www.inkscape.org/namespaces/inkscape"
   width="12.922"
   height="24"
   viewBox="0 0 3.4189457 6.3500002"
   version="1.1"
   id="svg835"
   inkscape:version="0.92.4 5da689c313, 2019-01-14"
   sodipodi:docname="note-thirtysecond.svg">
  <defs
     id="defs829" />
  <sodipodi:namedview
     id="base"
     pagecolor="#ffffff"
     bordercolor="#666666"
     borderopacity="1.0"
     inkscape:pageopacity="0.0"
     inkscape:pageshadow="2"
     inkscape:zoom="22.4"
     inkscape:cx="2.1105675"
     inkscape:cy="15.376907"
     inkscape:document-units="px"
     inkscape:current-layer="layer1"
     showgrid="false"
     units="px"
     inkscape:window-width="1920"
     inkscape:window-height="1012"
     inkscape:window-x="0"
     inkscape:window-y="36"
     inkscape:window-maximized="1"
     showguides="true"
     inkscape:guide-bbox="true">
    <sodipodi:guide
       position="-1.0039992,1.5875"
       orientation="0,1"
       id="guide1407"
       inkscape:locked="false"
       inkscape:label=""
       inkscape:color="rgb(0,0,255)" />
  </sodipodi:namedview>
  <metadata
     id="metadata832">
    <rdf:RDF>
      <cc:Work
         rdf:about="">
        <dc:format>image/svg+xml</dc:format>
        <dc:type
           rdf:resource="http://purl.org/dc/dcmitype/StillImage" />
        <dc:title />
      </cc:Work>
    </rdf:RDF>
  </metadata>
  <g
     inkscape:label="Layer 1"
     inkscape:groupmode="layer"
     id="layer1"
     transform="translate(0,-290.64999)">
    <g
       aria-label="ð…¢"
       style="font-style:normal;font-weight:normal;font-size:5.55555534px;line-height:1.25;font-family:sans-serif;letter-spacing:0px;word-spacing:0px;fill:#000000;fill-opacity:1;stroke:none;stroke-width:0.1388889"
       id="text1478">
      <path
         d="m 1.5055555,290.64999 h 0.1444444 q 0.016667,0.20555 0.088889,0.36111 0.077778,0.15555 0.2333333,0.32222 0.1611111,0.16667 0.4166667,0.41667 0.2611111,0.25 0.4,0.47222 0.1388888,0.22222 0.1888888,0.43333 0.05,0.20556 0.05,0.42778 0,0.24444 -0.066667,0.48889 0.066667,0.20555 0.066667,0.44444 0,0.0944 -0.016667,0.2 -0.011111,0.10556 -0.038889,0.22222 0.1333333,0.17223 0.1333333,0.54445 0,0.25555 -0.072222,0.52778 -0.066667,0.26666 -0.2111111,0.47777 h -0.088889 q 0.25,-0.51666 0.25,-0.9 0,-0.35 -0.2,-0.61666 -0.1944444,-0.27222 -0.5833333,-0.51667 l -0.55,-0.35 v 2.50556 q 0,0.23333 -0.1611111,0.43889 -0.1555555,0.2 -0.4055555,0.32777 -0.25000002,0.12223 -0.51666668,0.12223 -0.26666666,0 -0.41666665,-0.11112 Q -2.3841858e-8,296.77776 -2.3841858e-8,296.5111 q 0,-0.17778 0.09999999384186,-0.33889 0.1,-0.16111 0.2611111,-0.28889 0.16111111,-0.12778 0.34999999,-0.2 0.19444444,-0.0778 0.38333334,-0.0778 0.1333333,0 0.2388889,0.0333 0.1055555,0.0333 0.1722222,0.11112 z m 0.1666666,1.01111 q 0,0.20555 0.094445,0.38333 0.061111,0.11667 0.1833333,0.24444 0.1222222,0.12778 0.2666667,0.25556 0.1777777,0.16111 0.3555555,0.36667 0.1833333,0.20555 0.3055555,0.45555 0.016667,-0.1 0.016667,-0.18889 0,-0.35 -0.1833333,-0.63333 -0.1888889,-0.28889 -0.4722222,-0.49444 -0.2833333,-0.21112 -0.5666667,-0.38889 z m -0.011111,0.96666 q 0.016667,0.26667 0.15,0.47778 0.1333333,0.20556 0.3333333,0.39445 l 0.4222222,0.39444 q 0.1166667,0.10556 0.1944445,0.2 0.077778,0.0944 0.1166666,0.17222 0.00556,-0.0444 0.00556,-0.0722 0,-0.0278 0,-0.0611 0,-0.83889 -1.2222222,-1.50556 z"
         style="stroke-width:0.1388889"
         id="path3989" />
    </g>
  </g>
</svg>
