<?xml version="1.0" encoding="UTF-8" standalone="no"?>
<!-- Created with Inkscape (http://www.inkscape.org/) -->

<svg
   xmlns:dc="http://purl.org/dc/elements/1.1/"
   xmlns:cc="http://creativecommons.org/ns#"
   xmlns:rdf="http://www.w3.org/1999/02/22-rdf-syntax-ns#"
   xmlns:svg="http://www.w3.org/2000/svg"
   xmlns="http://www.w3.org/2000/svg"
   xmlns:sodipodi="http://sodipodi.sourceforge.net/DTD/sodipodi-0.dtd"
   xmlns:inkscape="http://www.inkscape.org/namespaces/inkscape"
   width="12.922"
   height="24"
   viewBox="0 0 3.4189457 6.3500002"
   version="1.1"
   id="svg835"
   inkscape:version="0.92.4 5da689c313, 2019-01-14"
   sodipodi:docname="note-sixteenth.svg">
  <defs
     id="defs829" />
  <sodipodi:namedview
     id="base"
     pagecolor="#ffffff"
     bordercolor="#666666"
     borderopacity="1.0"
     inkscape:pageopacity="0.0"
     inkscape:pageshadow="2"
     inkscape:zoom="22.4"
     inkscape:cx="15.707189"
     inkscape:cy="11.505622"
     inkscape:document-units="px"
     inkscape:current-layer="layer1"
     showgrid="false"
     units="px"
     inkscape:window-width="1920"
     inkscape:window-height="1012"
     inkscape:window-x="0"
     inkscape:window-y="36"
     inkscape:window-maximized="1"
     showguides="true"
     inkscape:guide-bbox="true">
    <sodipodi:guide
       position="-1.0039992,1.5875"
       orientation="0,1"
       id="guide1407"
       inkscape:locked="false"
       inkscape:label=""
       inkscape:color="rgb(0,0,255)" />
  </sodipodi:namedview>
  <metadata
     id="metadata832">
    <rdf:RDF>
      <cc:Work
         rdf:about="">
        <dc:format>image/svg+xml</dc:format>
        <dc:type
           rdf:resource="http://purl.org/dc/dcmitype/StillImage" />
        <dc:title></dc:title>
      </cc:Work>
    </rdf:RDF>
  </metadata>
  <g
     inkscape:label="Layer 1"
     inkscape:groupmode="layer"
     id="layer1"
     transform="translate(0,-290.64999)">
    <g
       aria-label="ð…¡"
       style="font-style:normal;font-weight:normal;font-size:6.12769318px;line-height:1.25;font-family:sans-serif;letter-spacing:0px;word-spacing:0px;fill:#000000;fill-opacity:1;stroke:none;stroke-width:0.15319234"
       id="text1453">
      <path
         d="m 1.6606048,290.88454 h 0.15932 q 0.018383,0.1777 0.055149,0.31251 0.036766,0.13481 0.098043,0.23898 0.1041708,0.16545 0.2512354,0.288 0.1470646,0.11643 0.3370231,0.30639 0.1838308,0.1777 0.3615339,0.3983 0.1777031,0.21447 0.2941293,0.49021 0.1225539,0.27575 0.1225539,0.6189 0,0.27575 -0.085788,0.60052 0.15932,0.23285 0.15932,0.67404 0,0.29413 -0.07966,0.58826 -0.07966,0.288 -0.2328524,0.49634 h -0.098043 q 0.2880016,-0.56374 0.2880016,-0.98043 0,-0.33702 -0.1899585,-0.61889 -0.1225538,-0.18384 -0.2757462,-0.32477 -0.1470646,-0.14707 -0.3799169,-0.30026 -0.2328524,-0.15319 -0.6250248,-0.34928 v 2.69619 q 0,0.26349 -0.1777031,0.49021 -0.1715754,0.2206 -0.4473216,0.35541 -0.27574615,0.13481 -0.56987542,0.13481 -0.25736311,0 -0.44119391,-0.11643 Q -2.3841858e-8,296.76713 -2.3841858e-8,296.52202 q 0,-0.29413 0.177703103841858,-0.53311 0.1777031,-0.23898 0.45957699,-0.37992 0.28187388,-0.14706 0.58213083,-0.14706 0.2757462,0 0.4411939,0.14706 z m 0.1960862,1.13975 q 0,0.31864 0.140937,0.58826 0.049022,0.0858 0.1960861,0.27575 0.1531924,0.18995 0.3615339,0.38604 0.2328524,0.2206 0.4105555,0.42281 0.1777031,0.20222 0.2083415,0.27575 0.012255,-0.049 0.018383,-0.1103 0.00613,-0.0674 0.00613,-0.14707 0,-0.4657 -0.300257,-0.87626 -0.3002569,-0.41055 -1.0417078,-0.81498 z"
         style="stroke-width:0.15319234"
         id="path3924" />
    </g>
  </g>
</svg>
