<?xml version="1.0" encoding="UTF-8" standalone="no"?>
<!-- Created with Inkscape (http://www.inkscape.org/) -->

<svg
   xmlns:dc="http://purl.org/dc/elements/1.1/"
   xmlns:cc="http://creativecommons.org/ns#"
   xmlns:rdf="http://www.w3.org/1999/02/22-rdf-syntax-ns#"
   xmlns:svg="http://www.w3.org/2000/svg"
   xmlns="http://www.w3.org/2000/svg"
   xmlns:sodipodi="http://sodipodi.sourceforge.net/DTD/sodipodi-0.dtd"
   xmlns:inkscape="http://www.inkscape.org/namespaces/inkscape"
   width="12.922"
   height="24"
   viewBox="0 0 3.4189459 6.35"
   version="1.1"
   id="svg8"
   inkscape:version="0.92.4 (5da689c313, 2019-01-14)"
   sodipodi:docname="note-eighth.svg">
  <defs
     id="defs2" />
  <sodipodi:namedview
     id="base"
     pagecolor="#ffffff"
     bordercolor="#666666"
     borderopacity="1.0"
     inkscape:pageopacity="0.0"
     inkscape:pageshadow="2"
     inkscape:zoom="31.678384"
     inkscape:cx="9.2629606"
     inkscape:cy="12.220436"
     inkscape:document-units="mm"
     inkscape:current-layer="layer1"
     showgrid="false"
     fit-margin-top="0"
     fit-margin-left="0"
     fit-margin-right="0"
     fit-margin-bottom="0"
     inkscape:window-width="1920"
     inkscape:window-height="1021"
     inkscape:window-x="0"
     inkscape:window-y="30"
     inkscape:window-maximized="1"
     showguides="true"
     inkscape:guide-bbox="true">
    <sodipodi:guide
       position="-3.524617,1.5875"
       orientation="0,1"
       id="guide1474"
       inkscape:locked="false"
       inkscape:label=""
       inkscape:color="rgb(0,0,255)" />
  </sodipodi:namedview>
  <metadata
     id="metadata5">
    <rdf:RDF>
      <cc:Work
         rdf:about="">
        <dc:format>image/svg+xml</dc:format>
        <dc:type
           rdf:resource="http://purl.org/dc/dcmitype/StillImage" />
        <dc:title></dc:title>
      </cc:Work>
    </rdf:RDF>
  </metadata>
  <g
     inkscape:label="Layer 1"
     inkscape:groupmode="layer"
     id="layer1"
     transform="translate(-67.681929,-113.86299)">
    <g
       aria-label="ð… "
       style="font-style:normal;font-weight:normal;font-size:8.17245865px;line-height:1.25;font-family:sans-serif;letter-spacing:0px;word-spacing:0px;fill:#000000;fill-opacity:1;stroke:none;stroke-width:0.20431145"
       id="text817"
       transform="matrix(0.96266703,0,0,0.96266703,2.5267677,4.4879085)">
      <path
         d="m 67.681929,119.64909 q 0,-0.42497 0.416796,-0.75187 0.416795,-0.33507 0.882625,-0.33507 0.269692,0 0.482175,0.13893 v -4.83809 h 0.171622 q 0.07355,0.474 0.269691,0.84993 0.196139,0.37594 0.416796,0.62111 0.228828,0.237 0.441312,0.474 0.212484,0.22883 0.351416,0.54756 0.147104,0.31055 0.147104,0.70283 0,0.69466 -0.580244,1.62632 h -0.187967 q 0.04086,-0.0899 0.13076,-0.28604 0.09807,-0.19614 0.130759,-0.26969 0.03269,-0.0735 0.0899,-0.22066 0.05721,-0.1471 0.07355,-0.237 0.02452,-0.0981 0.04086,-0.22883 0.02452,-0.13075 0.02452,-0.26151 0,-0.54756 -0.408623,-1.02156 -0.400451,-0.474 -0.93166,-0.50669 v 3.49781 q 0,0.45766 -0.400451,0.76004 -0.40045,0.30238 -0.882625,0.30238 -0.269692,0 -0.474003,-0.15528 -0.204312,-0.16345 -0.204313,-0.40862 z"
         style="stroke-width:0.20431145"
         id="path822"
         inkscape:connector-curvature="0" />
    </g>
  </g>
</svg>
