<?xml version="1.0" encoding="UTF-8" standalone="no"?>
<!-- Created with Inkscape (http://www.inkscape.org/) -->

<svg
   xmlns:dc="http://purl.org/dc/elements/1.1/"
   xmlns:cc="http://creativecommons.org/ns#"
   xmlns:rdf="http://www.w3.org/1999/02/22-rdf-syntax-ns#"
   xmlns:svg="http://www.w3.org/2000/svg"
   xmlns="http://www.w3.org/2000/svg"
   xmlns:sodipodi="http://sodipodi.sourceforge.net/DTD/sodipodi-0.dtd"
   xmlns:inkscape="http://www.inkscape.org/namespaces/inkscape"
   width="10"
   height="24"
   viewBox="0 0 2.6458333 6.3500002"
   version="1.1"
   id="svg8"
   inkscape:version="0.92.4 (5da689c313, 2019-01-14)"
   sodipodi:docname="rest-thirtysecond.svg">
  <defs
     id="defs2" />
  <sodipodi:namedview
     id="base"
     pagecolor="#ffffff"
     bordercolor="#666666"
     borderopacity="1.0"
     inkscape:pageopacity="0.0"
     inkscape:pageshadow="2"
     inkscape:zoom="15.839192"
     inkscape:cx="19.424273"
     inkscape:cy="17.857863"
     inkscape:document-units="px"
     inkscape:current-layer="layer1"
     showgrid="false"
     units="px"
     showguides="true"
     inkscape:guide-bbox="true"
     inkscape:window-width="1920"
     inkscape:window-height="1021"
     inkscape:window-x="0"
     inkscape:window-y="30"
     inkscape:window-maximized="1">
    <sodipodi:guide
       position="1.5367,1.5875"
       orientation="0,1"
       id="guide815"
       inkscape:locked="false"
       inkscape:label=""
       inkscape:color="rgb(0,0,255)" />
    <sodipodi:guide
       position="0.3674956,0"
       orientation="0,1"
       id="guide817"
       inkscape:locked="false"
       inkscape:label=""
       inkscape:color="rgb(0,0,255)" />
  </sodipodi:namedview>
  <metadata
     id="metadata5">
    <rdf:RDF>
      <cc:Work
         rdf:about="">
        <dc:format>image/svg+xml</dc:format>
        <dc:type
           rdf:resource="http://purl.org/dc/dcmitype/StillImage" />
        <dc:title></dc:title>
      </cc:Work>
    </rdf:RDF>
  </metadata>
  <g
     inkscape:label="Layer 1"
     inkscape:groupmode="layer"
     id="layer1"
     transform="translate(0,-290.64999)">
    <g
       aria-label="ð…€"
       style="font-style:normal;font-weight:normal;font-size:8.26822948px;line-height:1.25;font-family:sans-serif;letter-spacing:0px;word-spacing:0px;fill:#000000;fill-opacity:1;stroke:none;stroke-width:0.20670573"
       id="text973">
      <path
         d="m 1.8272787,291.48923 q 0.1405599,0 0.3307292,-0.19017 0.1901692,-0.19017 0.3059244,-0.37207 h 0.1819011 l -1.66191413,5.96966 H 0.67799478 l 0.59531252,-2.14974 q -0.38860679,0.19844 -0.62838544,0.19844 -0.23977866,0 -0.44648439,-0.16537 Q -4.0650368e-8,294.60635 -4.0650368e-8,294.3583 q 0,-0.1819 0.132291670650368,-0.33072 0.13229167,-0.1571 0.3638021,-0.1571 0.22324219,0 0.35553387,0.1571 0.13229167,0.14882 0.13229167,0.33072 0,0.12403 -0.0578776,0.23152 0.0330729,0.0165 0.0413412,0.0165 0.15709639,0 0.43821619,-0.30592 l 0.3059245,-1.10795 q -0.3720704,0.19017 -0.6366537,0.19017 -0.23151043,0 -0.43821617,-0.16536 -0.20670574,-0.16537 -0.20670574,-0.41341 0,-0.21498 0.1405599,-0.34727 0.14882813,-0.14056 0.34726564,-0.14056 0.20670577,0 0.34726567,0.14056 0.1488281,0.14056 0.1488281,0.34727 0,0.12402 -0.049609,0.22324 0.033073,0.0165 0.041341,0.0165 0.1570963,0 0.4216797,-0.28939 l 0.3059245,-1.11621 q -0.396875,0.19017 -0.6201172,0.19017 -0.2315105,0 -0.4382162,-0.16537 -0.20670574,-0.17363 -0.20670574,-0.42168 0,-0.19844 0.13229164,-0.339 0.1405599,-0.14882 0.3555339,-0.14882 0.2067057,0 0.3472656,0.14056 0.1405599,0.13229 0.1405599,0.34726 0,0.12403 -0.049609,0.22324 0.024805,0.0248 0.033073,0.0248 z"
         style="stroke-width:0.20670573"
         id="path975" />
    </g>
  </g>
</svg>
