<?xml version="1.0" encoding="UTF-8" standalone="no"?>
<!-- Created with Inkscape (http://www.inkscape.org/) -->

<svg
   xmlns:dc="http://purl.org/dc/elements/1.1/"
   xmlns:cc="http://creativecommons.org/ns#"
   xmlns:rdf="http://www.w3.org/1999/02/22-rdf-syntax-ns#"
   xmlns:svg="http://www.w3.org/2000/svg"
   xmlns="http://www.w3.org/2000/svg"
   xmlns:sodipodi="http://sodipodi.sourceforge.net/DTD/sodipodi-0.dtd"
   xmlns:inkscape="http://www.inkscape.org/namespaces/inkscape"
   width="10"
   height="24"
   viewBox="0 0 2.6458333 6.3500002"
   version="1.1"
   id="svg8"
   inkscape:version="0.92.4 (5da689c313, 2019-01-14)"
   sodipodi:docname="rest-sixteenth.svg">
  <defs
     id="defs2" />
  <sodipodi:namedview
     id="base"
     pagecolor="#ffffff"
     bordercolor="#666666"
     borderopacity="1.0"
     inkscape:pageopacity="0.0"
     inkscape:pageshadow="2"
     inkscape:zoom="15.839192"
     inkscape:cx="19.424273"
     inkscape:cy="17.857863"
     inkscape:document-units="px"
     inkscape:current-layer="layer1"
     showgrid="false"
     units="px"
     showguides="true"
     inkscape:guide-bbox="true"
     inkscape:window-width="1920"
     inkscape:window-height="1021"
     inkscape:window-x="0"
     inkscape:window-y="30"
     inkscape:window-maximized="1">
    <sodipodi:guide
       position="1.5367,1.5875"
       orientation="0,1"
       id="guide815"
       inkscape:locked="false"
       inkscape:label=""
       inkscape:color="rgb(0,0,255)" />
    <sodipodi:guide
       position="0.3674956,0"
       orientation="0,1"
       id="guide817"
       inkscape:locked="false"
       inkscape:label=""
       inkscape:color="rgb(0,0,255)" />
  </sodipodi:namedview>
  <metadata
     id="metadata5">
    <rdf:RDF>
      <cc:Work
         rdf:about="">
        <dc:format>image/svg+xml</dc:format>
        <dc:type
           rdf:resource="http://purl.org/dc/dcmitype/StillImage" />
        <dc:title></dc:title>
      </cc:Work>
    </rdf:RDF>
  </metadata>
  <g
     inkscape:label="Layer 1"
     inkscape:groupmode="layer"
     id="layer1"
     transform="translate(0,-290.64999)">
    <g
       aria-label="ð„¿"
       style="font-style:normal;font-weight:normal;font-size:9.87251282px;line-height:1.25;font-family:sans-serif;letter-spacing:0px;word-spacing:0px;fill:#000000;fill-opacity:1;stroke:none;stroke-width:0.24681282"
       id="text939">
      <path
         d="m 1.6783271,292.15599 q 0.1579602,0 0.3949006,-0.23694 0.2369403,-0.23694 0.3554104,-0.43439 H 2.6458334 L 1.174829,296.75658 H 0.80954601 l 0.71082089,-2.56686 q -0.4640081,0.23695 -0.75031094,0.23695 -0.28630287,0 -0.53311569,-0.19745 Q -4.0531158e-8,294.02189 -4.0531158e-8,293.72572 q 0,-0.2172 0.157960200531158,-0.3949 0.15796021,-0.18758 0.43439057,-0.18758 0.26655784,0 0.42451807,0.18758 0.1579602,0.1777 0.1579602,0.3949 0,0.14808 -0.069108,0.27643 0.03949,0.0197 0.049363,0.0197 0.1875777,0 0.5232431,-0.36528 l 0.365283,-1.32292 q -0.4442631,0.22707 -0.7601835,0.22707 -0.2764303,0 -0.52324315,-0.19745 -0.24681282,-0.19745 -0.24681282,-0.49363 0,-0.25668 0.16783271,-0.41464 0.17770523,-0.16783 0.41464556,-0.16783 0.2468128,0 0.4146455,0.16783 0.1777053,0.16783 0.1777053,0.41464 0,0.14809 -0.059235,0.26656 0.03949,0.0197 0.049362,0.0197 z"
         style="stroke-width:0.24681282"
         id="path941" />
    </g>
  </g>
</svg>
